<mxfile host="app.diagrams.net" modified="2021-12-18T07:50:20.954Z" agent="5.0 (Macintosh; Intel Mac OS X 10_14_6) AppleWebKit/537.36 (KHTML, like Gecko) Chrome/95.0.4638.69 Safari/537.36" etag="EyE0xRsNlz_amRRsAfWk" version="15.9.6" type="github">
  <diagram id="C5RBs43oDa-KdzZeNtuy" name="Page-1">
    <mxGraphModel dx="1151" dy="657" grid="0" gridSize="10" guides="1" tooltips="1" connect="1" arrows="1" fold="1" page="0" pageScale="1" pageWidth="827" pageHeight="1169" background="#FFFFFF" math="0" shadow="0">
      <root>
        <mxCell id="WIyWlLk6GJQsqaUBKTNV-0" />
        <mxCell id="WIyWlLk6GJQsqaUBKTNV-1" parent="WIyWlLk6GJQsqaUBKTNV-0" />
        <mxCell id="5ZYStBsxPsz1scZc6Z6h-1" value="" style="edgeStyle=orthogonalEdgeStyle;rounded=0;orthogonalLoop=1;jettySize=auto;html=1;entryX=0.5;entryY=0;entryDx=0;entryDy=0;fontColor=#000000;labelBackgroundColor=none;startArrow=none;exitX=0;exitY=0.5;exitDx=0;exitDy=0;" edge="1" parent="WIyWlLk6GJQsqaUBKTNV-1" source="5ZYStBsxPsz1scZc6Z6h-9" target="5ZYStBsxPsz1scZc6Z6h-14">
          <mxGeometry relative="1" as="geometry">
            <mxPoint x="247" y="258" as="sourcePoint" />
            <mxPoint x="220" y="300" as="targetPoint" />
          </mxGeometry>
        </mxCell>
        <mxCell id="5ZYStBsxPsz1scZc6Z6h-3" value="" style="edgeStyle=orthogonalEdgeStyle;rounded=0;orthogonalLoop=1;jettySize=auto;html=1;fontColor=#000000;labelBackgroundColor=none;" edge="1" parent="WIyWlLk6GJQsqaUBKTNV-1" source="WIyWlLk6GJQsqaUBKTNV-3" target="5ZYStBsxPsz1scZc6Z6h-2">
          <mxGeometry relative="1" as="geometry" />
        </mxCell>
        <mxCell id="WIyWlLk6GJQsqaUBKTNV-3" value="&lt;pre style=&quot;font-family: &amp;quot;jetbrains mono&amp;quot;; font-size: 10.5pt;&quot;&gt;&lt;span style=&quot;&quot;&gt;tcp_v4_rcv&lt;/span&gt;&lt;/pre&gt;" style="rounded=1;whiteSpace=wrap;html=1;fontSize=12;glass=0;strokeWidth=1;shadow=0;fontColor=#000000;labelBackgroundColor=none;" parent="WIyWlLk6GJQsqaUBKTNV-1" vertex="1">
          <mxGeometry x="160" y="80" width="120" height="40" as="geometry" />
        </mxCell>
        <mxCell id="5ZYStBsxPsz1scZc6Z6h-5" value="" style="edgeStyle=orthogonalEdgeStyle;rounded=0;orthogonalLoop=1;jettySize=auto;html=1;exitX=1;exitY=0.5;exitDx=0;exitDy=0;fontColor=#000000;labelBackgroundColor=none;" edge="1" parent="WIyWlLk6GJQsqaUBKTNV-1" source="5ZYStBsxPsz1scZc6Z6h-7" target="5ZYStBsxPsz1scZc6Z6h-4">
          <mxGeometry relative="1" as="geometry" />
        </mxCell>
        <mxCell id="5ZYStBsxPsz1scZc6Z6h-53" value="Y" style="edgeLabel;html=1;align=center;verticalAlign=middle;resizable=0;points=[];fontColor=#000000;" vertex="1" connectable="0" parent="5ZYStBsxPsz1scZc6Z6h-5">
          <mxGeometry x="-0.1502" y="1" relative="1" as="geometry">
            <mxPoint as="offset" />
          </mxGeometry>
        </mxCell>
        <mxCell id="5ZYStBsxPsz1scZc6Z6h-8" value="" style="edgeStyle=orthogonalEdgeStyle;rounded=0;orthogonalLoop=1;jettySize=auto;html=1;fontColor=#000000;labelBackgroundColor=none;" edge="1" parent="WIyWlLk6GJQsqaUBKTNV-1" source="5ZYStBsxPsz1scZc6Z6h-2" target="5ZYStBsxPsz1scZc6Z6h-7">
          <mxGeometry relative="1" as="geometry" />
        </mxCell>
        <mxCell id="5ZYStBsxPsz1scZc6Z6h-55" value="Y" style="edgeLabel;html=1;align=center;verticalAlign=middle;resizable=0;points=[];fontColor=#000000;" vertex="1" connectable="0" parent="5ZYStBsxPsz1scZc6Z6h-8">
          <mxGeometry x="-0.25" y="1" relative="1" as="geometry">
            <mxPoint as="offset" />
          </mxGeometry>
        </mxCell>
        <mxCell id="5ZYStBsxPsz1scZc6Z6h-4" value="&lt;pre style=&quot;font-family: &amp;quot;jetbrains mono&amp;quot;; font-size: 10.5pt;&quot;&gt;do_time_wait&lt;/pre&gt;" style="whiteSpace=wrap;html=1;rounded=1;glass=0;strokeWidth=1;shadow=0;fontColor=#000000;labelBackgroundColor=none;fillColor=#FFFFFF;" vertex="1" parent="WIyWlLk6GJQsqaUBKTNV-1">
          <mxGeometry x="693" y="200" width="120" height="40" as="geometry" />
        </mxCell>
        <mxCell id="5ZYStBsxPsz1scZc6Z6h-10" value="" style="edgeStyle=orthogonalEdgeStyle;rounded=0;orthogonalLoop=1;jettySize=auto;html=1;fontColor=#000000;labelBackgroundColor=none;" edge="1" parent="WIyWlLk6GJQsqaUBKTNV-1" source="5ZYStBsxPsz1scZc6Z6h-7" target="5ZYStBsxPsz1scZc6Z6h-9">
          <mxGeometry relative="1" as="geometry" />
        </mxCell>
        <mxCell id="5ZYStBsxPsz1scZc6Z6h-54" value="N" style="edgeLabel;html=1;align=center;verticalAlign=middle;resizable=0;points=[];fontColor=#000000;" vertex="1" connectable="0" parent="5ZYStBsxPsz1scZc6Z6h-10">
          <mxGeometry x="-0.3735" y="-1" relative="1" as="geometry">
            <mxPoint as="offset" />
          </mxGeometry>
        </mxCell>
        <mxCell id="5ZYStBsxPsz1scZc6Z6h-7" value="timewait" style="rhombus;whiteSpace=wrap;html=1;rounded=1;glass=0;strokeWidth=1;shadow=0;fontColor=#000000;labelBackgroundColor=none;" vertex="1" parent="WIyWlLk6GJQsqaUBKTNV-1">
          <mxGeometry x="340" y="180" width="80" height="80" as="geometry" />
        </mxCell>
        <mxCell id="5ZYStBsxPsz1scZc6Z6h-12" value="" style="edgeStyle=orthogonalEdgeStyle;rounded=0;orthogonalLoop=1;jettySize=auto;html=1;fontColor=#000000;labelBackgroundColor=none;" edge="1" parent="WIyWlLk6GJQsqaUBKTNV-1" target="5ZYStBsxPsz1scZc6Z6h-11">
          <mxGeometry relative="1" as="geometry">
            <mxPoint x="1157" y="420" as="sourcePoint" />
            <Array as="points">
              <mxPoint x="1062" y="420" />
              <mxPoint x="1062" y="390" />
            </Array>
          </mxGeometry>
        </mxCell>
        <mxCell id="5ZYStBsxPsz1scZc6Z6h-57" value="" style="edgeStyle=orthogonalEdgeStyle;rounded=0;orthogonalLoop=1;jettySize=auto;html=1;labelBackgroundColor=none;fontColor=#000000;" edge="1" parent="WIyWlLk6GJQsqaUBKTNV-1" source="5ZYStBsxPsz1scZc6Z6h-9" target="5ZYStBsxPsz1scZc6Z6h-56">
          <mxGeometry relative="1" as="geometry" />
        </mxCell>
        <mxCell id="5ZYStBsxPsz1scZc6Z6h-69" value="Y" style="edgeLabel;html=1;align=center;verticalAlign=middle;resizable=0;points=[];fontColor=#000000;" vertex="1" connectable="0" parent="5ZYStBsxPsz1scZc6Z6h-57">
          <mxGeometry x="-0.5181" y="3" relative="1" as="geometry">
            <mxPoint y="1" as="offset" />
          </mxGeometry>
        </mxCell>
        <mxCell id="5ZYStBsxPsz1scZc6Z6h-9" value="&lt;pre style=&quot;font-size: 10.5pt ; font-family: &amp;quot;jetbrains mono&amp;quot;&quot;&gt;&lt;span style=&quot;&quot;&gt;TCP_NEW_SYN_RECV&lt;/span&gt;&lt;/pre&gt;" style="rhombus;whiteSpace=wrap;html=1;rounded=1;glass=0;strokeWidth=1;shadow=0;fontColor=#000000;labelBackgroundColor=none;fillColor=#00FF80;" vertex="1" parent="WIyWlLk6GJQsqaUBKTNV-1">
          <mxGeometry x="225" y="301" width="229" height="57" as="geometry" />
        </mxCell>
        <mxCell id="5ZYStBsxPsz1scZc6Z6h-71" value="" style="edgeStyle=orthogonalEdgeStyle;rounded=0;orthogonalLoop=1;jettySize=auto;html=1;labelBackgroundColor=none;fontColor=#000000;" edge="1" parent="WIyWlLk6GJQsqaUBKTNV-1" source="5ZYStBsxPsz1scZc6Z6h-11">
          <mxGeometry relative="1" as="geometry">
            <mxPoint x="788" y="605" as="targetPoint" />
            <Array as="points">
              <mxPoint x="907" y="528" />
              <mxPoint x="788" y="528" />
            </Array>
          </mxGeometry>
        </mxCell>
        <mxCell id="5ZYStBsxPsz1scZc6Z6h-11" value="&lt;pre style=&quot;font-family: &amp;quot;jetbrains mono&amp;quot;; font-size: 10.5pt;&quot;&gt;tcp_child_process&lt;/pre&gt;" style="whiteSpace=wrap;html=1;rounded=1;glass=0;strokeWidth=1;shadow=0;fontColor=#000000;labelBackgroundColor=none;fillColor=#FFFFFF;" vertex="1" parent="WIyWlLk6GJQsqaUBKTNV-1">
          <mxGeometry x="847" y="370" width="120" height="40" as="geometry" />
        </mxCell>
        <mxCell id="5ZYStBsxPsz1scZc6Z6h-17" value="" style="edgeStyle=orthogonalEdgeStyle;rounded=0;orthogonalLoop=1;jettySize=auto;html=1;fontColor=#000000;labelBackgroundColor=none;" edge="1" parent="WIyWlLk6GJQsqaUBKTNV-1" source="5ZYStBsxPsz1scZc6Z6h-14" target="5ZYStBsxPsz1scZc6Z6h-16">
          <mxGeometry relative="1" as="geometry" />
        </mxCell>
        <mxCell id="5ZYStBsxPsz1scZc6Z6h-14" value="listen" style="rhombus;whiteSpace=wrap;html=1;rounded=1;glass=0;strokeWidth=1;shadow=0;fontColor=#000000;labelBackgroundColor=none;" vertex="1" parent="WIyWlLk6GJQsqaUBKTNV-1">
          <mxGeometry x="174" y="375" width="80" height="80" as="geometry" />
        </mxCell>
        <mxCell id="5ZYStBsxPsz1scZc6Z6h-21" value="" style="edgeStyle=orthogonalEdgeStyle;rounded=0;orthogonalLoop=1;jettySize=auto;html=1;labelBackgroundColor=none;fontColor=#000000;" edge="1" parent="WIyWlLk6GJQsqaUBKTNV-1" source="5ZYStBsxPsz1scZc6Z6h-16" target="5ZYStBsxPsz1scZc6Z6h-20">
          <mxGeometry relative="1" as="geometry" />
        </mxCell>
        <mxCell id="5ZYStBsxPsz1scZc6Z6h-16" value="&lt;pre style=&quot;font-family: &amp;quot;jetbrains mono&amp;quot;; font-size: 10.5pt;&quot;&gt;tcp_v4_do_rcv&lt;/pre&gt;" style="whiteSpace=wrap;html=1;rounded=1;glass=0;strokeWidth=1;shadow=0;fontColor=#000000;labelBackgroundColor=none;" vertex="1" parent="WIyWlLk6GJQsqaUBKTNV-1">
          <mxGeometry x="150" y="543" width="120" height="40" as="geometry" />
        </mxCell>
        <mxCell id="5ZYStBsxPsz1scZc6Z6h-33" value="" style="edgeStyle=orthogonalEdgeStyle;rounded=0;orthogonalLoop=1;jettySize=auto;html=1;labelBackgroundColor=none;fontColor=#000000;exitX=0.41;exitY=-0.022;exitDx=0;exitDy=0;exitPerimeter=0;entryX=0;entryY=0.5;entryDx=0;entryDy=0;" edge="1" parent="WIyWlLk6GJQsqaUBKTNV-1" target="5ZYStBsxPsz1scZc6Z6h-11">
          <mxGeometry relative="1" as="geometry">
            <mxPoint x="502.96000000000004" y="723.01" as="sourcePoint" />
            <mxPoint x="806" y="306" as="targetPoint" />
            <Array as="points">
              <mxPoint x="526" y="723" />
              <mxPoint x="526" y="390" />
            </Array>
          </mxGeometry>
        </mxCell>
        <mxCell id="5ZYStBsxPsz1scZc6Z6h-18" value="&lt;pre style=&quot;font-family: &amp;quot;jetbrains mono&amp;quot; ; font-size: 10.5pt&quot;&gt;&lt;pre style=&quot;font-family: &amp;quot;jetbrains mono&amp;quot;; font-size: 10.5pt;&quot;&gt;tcp_v4_cookie_check&lt;/pre&gt;&lt;/pre&gt;" style="whiteSpace=wrap;html=1;rounded=1;glass=0;strokeWidth=1;shadow=0;fontColor=#000000;labelBackgroundColor=none;" vertex="1" parent="WIyWlLk6GJQsqaUBKTNV-1">
          <mxGeometry x="443" y="713" width="156" height="45" as="geometry" />
        </mxCell>
        <mxCell id="5ZYStBsxPsz1scZc6Z6h-23" value="" style="edgeStyle=orthogonalEdgeStyle;rounded=0;orthogonalLoop=1;jettySize=auto;html=1;labelBackgroundColor=none;fontColor=#000000;" edge="1" parent="WIyWlLk6GJQsqaUBKTNV-1" source="5ZYStBsxPsz1scZc6Z6h-20" target="5ZYStBsxPsz1scZc6Z6h-22">
          <mxGeometry relative="1" as="geometry" />
        </mxCell>
        <mxCell id="5ZYStBsxPsz1scZc6Z6h-27" value="" style="edgeStyle=orthogonalEdgeStyle;rounded=0;orthogonalLoop=1;jettySize=auto;html=1;labelBackgroundColor=none;fontColor=#000000;" edge="1" parent="WIyWlLk6GJQsqaUBKTNV-1" source="5ZYStBsxPsz1scZc6Z6h-20" target="5ZYStBsxPsz1scZc6Z6h-26">
          <mxGeometry relative="1" as="geometry" />
        </mxCell>
        <mxCell id="5ZYStBsxPsz1scZc6Z6h-20" value="established" style="rhombus;whiteSpace=wrap;html=1;fontColor=#000000;rounded=1;glass=0;strokeWidth=1;shadow=0;labelBackgroundColor=none;" vertex="1" parent="WIyWlLk6GJQsqaUBKTNV-1">
          <mxGeometry x="380" y="430" width="80" height="80" as="geometry" />
        </mxCell>
        <mxCell id="5ZYStBsxPsz1scZc6Z6h-22" value="&lt;pre style=&quot;font-family: &amp;quot;jetbrains mono&amp;quot;; font-size: 10.5pt;&quot;&gt;tcp_rcv_established&lt;/pre&gt;" style="whiteSpace=wrap;html=1;fontColor=#000000;rounded=1;glass=0;strokeWidth=1;shadow=0;labelBackgroundColor=none;fillColor=#FFFFFF;" vertex="1" parent="WIyWlLk6GJQsqaUBKTNV-1">
          <mxGeometry x="695" y="447.5" width="156" height="45" as="geometry" />
        </mxCell>
        <mxCell id="5ZYStBsxPsz1scZc6Z6h-31" value="" style="edgeStyle=orthogonalEdgeStyle;rounded=0;orthogonalLoop=1;jettySize=auto;html=1;entryX=0;entryY=0.5;entryDx=0;entryDy=0;labelBackgroundColor=none;fontColor=#000000;" edge="1" parent="WIyWlLk6GJQsqaUBKTNV-1" source="5ZYStBsxPsz1scZc6Z6h-26" target="5ZYStBsxPsz1scZc6Z6h-18">
          <mxGeometry relative="1" as="geometry">
            <mxPoint x="506" y="630" as="targetPoint" />
          </mxGeometry>
        </mxCell>
        <mxCell id="5ZYStBsxPsz1scZc6Z6h-34" value="syn cookie" style="edgeLabel;html=1;align=center;verticalAlign=middle;resizable=0;points=[];labelBackgroundColor=none;fontColor=#000000;" vertex="1" connectable="0" parent="5ZYStBsxPsz1scZc6Z6h-31">
          <mxGeometry x="-0.3239" y="4" relative="1" as="geometry">
            <mxPoint as="offset" />
          </mxGeometry>
        </mxCell>
        <mxCell id="5ZYStBsxPsz1scZc6Z6h-38" value="" style="edgeStyle=orthogonalEdgeStyle;rounded=0;orthogonalLoop=1;jettySize=auto;html=1;labelBackgroundColor=none;fontColor=#000000;" edge="1" parent="WIyWlLk6GJQsqaUBKTNV-1" source="5ZYStBsxPsz1scZc6Z6h-26" target="5ZYStBsxPsz1scZc6Z6h-37">
          <mxGeometry relative="1" as="geometry" />
        </mxCell>
        <mxCell id="5ZYStBsxPsz1scZc6Z6h-26" value="listen" style="rhombus;whiteSpace=wrap;html=1;fontColor=#000000;rounded=1;glass=0;strokeWidth=1;shadow=0;labelBackgroundColor=none;" vertex="1" parent="WIyWlLk6GJQsqaUBKTNV-1">
          <mxGeometry x="380" y="590" width="80" height="80" as="geometry" />
        </mxCell>
        <mxCell id="5ZYStBsxPsz1scZc6Z6h-41" value="" style="edgeStyle=orthogonalEdgeStyle;rounded=0;orthogonalLoop=1;jettySize=auto;html=1;labelBackgroundColor=none;fontColor=#000000;entryX=0;entryY=0.5;entryDx=0;entryDy=0;" edge="1" parent="WIyWlLk6GJQsqaUBKTNV-1" source="5ZYStBsxPsz1scZc6Z6h-37" target="5ZYStBsxPsz1scZc6Z6h-42">
          <mxGeometry relative="1" as="geometry">
            <mxPoint x="958" y="630" as="targetPoint" />
          </mxGeometry>
        </mxCell>
        <mxCell id="5ZYStBsxPsz1scZc6Z6h-37" value="&lt;pre style=&quot;font-family: &amp;quot;jetbrains mono&amp;quot;; font-size: 10.5pt;&quot;&gt;tcp_rcv_state_process&lt;/pre&gt;" style="whiteSpace=wrap;html=1;fontColor=#000000;rounded=1;glass=0;strokeWidth=1;shadow=0;labelBackgroundColor=none;fillColor=#FFFFFF;" vertex="1" parent="WIyWlLk6GJQsqaUBKTNV-1">
          <mxGeometry x="695" y="610" width="183" height="40" as="geometry" />
        </mxCell>
        <mxCell id="5ZYStBsxPsz1scZc6Z6h-44" value="" style="edgeStyle=orthogonalEdgeStyle;rounded=0;orthogonalLoop=1;jettySize=auto;html=1;labelBackgroundColor=none;fontColor=#000000;" edge="1" parent="WIyWlLk6GJQsqaUBKTNV-1" source="5ZYStBsxPsz1scZc6Z6h-42" target="5ZYStBsxPsz1scZc6Z6h-43">
          <mxGeometry relative="1" as="geometry" />
        </mxCell>
        <mxCell id="5ZYStBsxPsz1scZc6Z6h-72" value="Y" style="edgeLabel;html=1;align=center;verticalAlign=middle;resizable=0;points=[];fontColor=#000000;" vertex="1" connectable="0" parent="5ZYStBsxPsz1scZc6Z6h-44">
          <mxGeometry x="-0.2" y="3" relative="1" as="geometry">
            <mxPoint as="offset" />
          </mxGeometry>
        </mxCell>
        <mxCell id="5ZYStBsxPsz1scZc6Z6h-42" value="listen" style="rhombus;whiteSpace=wrap;html=1;fontColor=#000000;rounded=1;glass=0;strokeWidth=1;shadow=0;labelBackgroundColor=none;" vertex="1" parent="WIyWlLk6GJQsqaUBKTNV-1">
          <mxGeometry x="949" y="590" width="80" height="80" as="geometry" />
        </mxCell>
        <mxCell id="5ZYStBsxPsz1scZc6Z6h-48" value="" style="edgeStyle=orthogonalEdgeStyle;rounded=0;orthogonalLoop=1;jettySize=auto;html=1;labelBackgroundColor=none;fontColor=#000000;" edge="1" parent="WIyWlLk6GJQsqaUBKTNV-1" source="5ZYStBsxPsz1scZc6Z6h-43" target="5ZYStBsxPsz1scZc6Z6h-47">
          <mxGeometry relative="1" as="geometry" />
        </mxCell>
        <mxCell id="5ZYStBsxPsz1scZc6Z6h-43" value="&lt;pre style=&quot;font-family: &amp;quot;jetbrains mono&amp;quot;; font-size: 10.5pt;&quot;&gt;&lt;pre style=&quot;font-family: &amp;quot;jetbrains mono&amp;quot; ; font-size: 10.5pt&quot;&gt;tcp_conn_request&lt;/pre&gt;&lt;/pre&gt;" style="whiteSpace=wrap;html=1;fontColor=#000000;rounded=1;glass=0;strokeWidth=1;shadow=0;labelBackgroundColor=none;" vertex="1" parent="WIyWlLk6GJQsqaUBKTNV-1">
          <mxGeometry x="1089" y="605" width="120" height="50" as="geometry" />
        </mxCell>
        <mxCell id="5ZYStBsxPsz1scZc6Z6h-50" value="" style="edgeStyle=orthogonalEdgeStyle;rounded=0;orthogonalLoop=1;jettySize=auto;html=1;labelBackgroundColor=none;fontColor=#000000;" edge="1" parent="WIyWlLk6GJQsqaUBKTNV-1" source="5ZYStBsxPsz1scZc6Z6h-47" target="5ZYStBsxPsz1scZc6Z6h-49">
          <mxGeometry relative="1" as="geometry" />
        </mxCell>
        <mxCell id="5ZYStBsxPsz1scZc6Z6h-52" value="" style="edgeStyle=orthogonalEdgeStyle;rounded=0;orthogonalLoop=1;jettySize=auto;html=1;labelBackgroundColor=none;fontColor=#000000;" edge="1" parent="WIyWlLk6GJQsqaUBKTNV-1" source="5ZYStBsxPsz1scZc6Z6h-47" target="5ZYStBsxPsz1scZc6Z6h-51">
          <mxGeometry relative="1" as="geometry" />
        </mxCell>
        <mxCell id="5ZYStBsxPsz1scZc6Z6h-47" value="&lt;pre style=&quot;font-family: &amp;quot;jetbrains mono&amp;quot;; font-size: 10.5pt;&quot;&gt;&lt;pre style=&quot;font-family: &amp;quot;jetbrains mono&amp;quot; ; font-size: 10.5pt&quot;&gt;&lt;pre style=&quot;font-family: &amp;quot;jetbrains mono&amp;quot; ; font-size: 10.5pt&quot;&gt;inet_reqsk_alloc&lt;/pre&gt;&lt;/pre&gt;&lt;/pre&gt;" style="whiteSpace=wrap;html=1;fontColor=#000000;rounded=1;glass=0;strokeWidth=1;shadow=0;labelBackgroundColor=none;" vertex="1" parent="WIyWlLk6GJQsqaUBKTNV-1">
          <mxGeometry x="1089" y="684" width="120" height="50" as="geometry" />
        </mxCell>
        <mxCell id="5ZYStBsxPsz1scZc6Z6h-49" value="&lt;pre style=&quot;font-family: &amp;quot;jetbrains mono&amp;quot;; font-size: 10.5pt;&quot;&gt;&lt;pre style=&quot;font-family: &amp;quot;jetbrains mono&amp;quot; ; font-size: 10.5pt&quot;&gt;&lt;pre style=&quot;font-family: &amp;quot;jetbrains mono&amp;quot; ; font-size: 10.5pt&quot;&gt;&lt;pre style=&quot;font-size: 10.5pt ; font-family: &amp;quot;jetbrains mono&amp;quot;&quot;&gt;&lt;span style=&quot;&quot;&gt;tcp_v4_init_req&lt;/span&gt;&lt;/pre&gt;&lt;/pre&gt;&lt;/pre&gt;&lt;/pre&gt;" style="whiteSpace=wrap;html=1;fontColor=#000000;rounded=1;glass=0;strokeWidth=1;shadow=0;labelBackgroundColor=none;" vertex="1" parent="WIyWlLk6GJQsqaUBKTNV-1">
          <mxGeometry x="1089" y="776" width="120" height="50" as="geometry" />
        </mxCell>
        <mxCell id="5ZYStBsxPsz1scZc6Z6h-51" value="&lt;pre style=&quot;font-family: &amp;#34;jetbrains mono&amp;#34; ; font-size: 10.5pt&quot;&gt;&lt;pre style=&quot;font-family: &amp;#34;jetbrains mono&amp;#34; ; font-size: 10.5pt&quot;&gt;&lt;pre style=&quot;font-family: &amp;#34;jetbrains mono&amp;#34; ; font-size: 10.5pt&quot;&gt;&lt;pre style=&quot;font-family: &amp;#34;jetbrains mono&amp;#34; ; font-size: 10.5pt&quot;&gt;&lt;span style=&quot;background-color: rgb(0 , 255 , 128)&quot;&gt;TCP_NEW_SYN_RECV&lt;/span&gt;&lt;/pre&gt;&lt;/pre&gt;&lt;/pre&gt;&lt;/pre&gt;" style="whiteSpace=wrap;html=1;fontColor=#000000;rounded=1;glass=0;strokeWidth=1;shadow=0;labelBackgroundColor=none;fillColor=#00FF80;" vertex="1" parent="WIyWlLk6GJQsqaUBKTNV-1">
          <mxGeometry x="1284" y="687" width="178" height="42" as="geometry" />
        </mxCell>
        <mxCell id="5ZYStBsxPsz1scZc6Z6h-59" value="" style="edgeStyle=orthogonalEdgeStyle;rounded=0;orthogonalLoop=1;jettySize=auto;html=1;labelBackgroundColor=none;fontColor=#000000;" edge="1" parent="WIyWlLk6GJQsqaUBKTNV-1" source="5ZYStBsxPsz1scZc6Z6h-56" target="5ZYStBsxPsz1scZc6Z6h-58">
          <mxGeometry relative="1" as="geometry" />
        </mxCell>
        <mxCell id="5ZYStBsxPsz1scZc6Z6h-56" value="&lt;pre style=&quot;font-family: &amp;quot;jetbrains mono&amp;quot;; font-size: 10.5pt;&quot;&gt;&lt;span style=&quot;&quot;&gt;tcp_check_req&lt;/span&gt;&lt;/pre&gt;" style="whiteSpace=wrap;html=1;fillColor=#00FF80;fontColor=#000000;rounded=1;glass=0;strokeWidth=1;shadow=0;labelBackgroundColor=none;" vertex="1" parent="WIyWlLk6GJQsqaUBKTNV-1">
          <mxGeometry x="536" y="257" width="120" height="60" as="geometry" />
        </mxCell>
        <mxCell id="5ZYStBsxPsz1scZc6Z6h-61" value="" style="edgeStyle=orthogonalEdgeStyle;rounded=0;orthogonalLoop=1;jettySize=auto;html=1;labelBackgroundColor=none;fontColor=#000000;exitX=1;exitY=0.5;exitDx=0;exitDy=0;" edge="1" parent="WIyWlLk6GJQsqaUBKTNV-1" source="5ZYStBsxPsz1scZc6Z6h-62" target="5ZYStBsxPsz1scZc6Z6h-60">
          <mxGeometry relative="1" as="geometry" />
        </mxCell>
        <mxCell id="5ZYStBsxPsz1scZc6Z6h-63" value="" style="edgeStyle=orthogonalEdgeStyle;rounded=0;orthogonalLoop=1;jettySize=auto;html=1;labelBackgroundColor=none;fontColor=#000000;" edge="1" parent="WIyWlLk6GJQsqaUBKTNV-1" source="5ZYStBsxPsz1scZc6Z6h-58" target="5ZYStBsxPsz1scZc6Z6h-62">
          <mxGeometry relative="1" as="geometry" />
        </mxCell>
        <mxCell id="5ZYStBsxPsz1scZc6Z6h-58" value="&lt;pre style=&quot;font-family: &amp;quot;jetbrains mono&amp;quot;; font-size: 10.5pt;&quot;&gt;&lt;pre style=&quot;font-family: &amp;quot;jetbrains mono&amp;quot; ; font-size: 10.5pt&quot;&gt;&lt;span style=&quot;&quot;&gt;tcp_v4_syn_recv_sock&lt;/span&gt;&lt;/pre&gt;&lt;/pre&gt;" style="whiteSpace=wrap;html=1;fillColor=#00FF80;fontColor=#000000;rounded=1;glass=0;strokeWidth=1;shadow=0;labelBackgroundColor=none;" vertex="1" parent="WIyWlLk6GJQsqaUBKTNV-1">
          <mxGeometry x="736" y="257" width="191" height="60" as="geometry" />
        </mxCell>
        <mxCell id="5ZYStBsxPsz1scZc6Z6h-60" value="&lt;pre style=&quot;font-family: &amp;quot;jetbrains mono&amp;quot;; font-size: 10.5pt;&quot;&gt;inet_csk_complete_hashdance&lt;/pre&gt;" style="whiteSpace=wrap;html=1;fillColor=#00FF80;fontColor=#000000;rounded=1;glass=0;strokeWidth=1;shadow=0;labelBackgroundColor=none;" vertex="1" parent="WIyWlLk6GJQsqaUBKTNV-1">
          <mxGeometry x="1160" y="395" width="230.5" height="60" as="geometry" />
        </mxCell>
        <mxCell id="5ZYStBsxPsz1scZc6Z6h-65" value="" style="edgeStyle=orthogonalEdgeStyle;rounded=0;orthogonalLoop=1;jettySize=auto;html=1;labelBackgroundColor=none;fontColor=#000000;" edge="1" parent="WIyWlLk6GJQsqaUBKTNV-1" source="5ZYStBsxPsz1scZc6Z6h-62" target="5ZYStBsxPsz1scZc6Z6h-64">
          <mxGeometry relative="1" as="geometry" />
        </mxCell>
        <mxCell id="5ZYStBsxPsz1scZc6Z6h-62" value="&lt;pre style=&quot;font-family: &amp;quot;jetbrains mono&amp;quot;; font-size: 10.5pt;&quot;&gt;tcp_create_openreq_child&lt;/pre&gt;" style="whiteSpace=wrap;html=1;fillColor=#00FF80;fontColor=#000000;rounded=1;glass=0;strokeWidth=1;shadow=0;labelBackgroundColor=none;" vertex="1" parent="WIyWlLk6GJQsqaUBKTNV-1">
          <mxGeometry x="1042.5" y="257" width="193.5" height="60" as="geometry" />
        </mxCell>
        <mxCell id="5ZYStBsxPsz1scZc6Z6h-67" value="" style="edgeStyle=orthogonalEdgeStyle;rounded=0;orthogonalLoop=1;jettySize=auto;html=1;labelBackgroundColor=none;fontColor=#000000;" edge="1" parent="WIyWlLk6GJQsqaUBKTNV-1" source="5ZYStBsxPsz1scZc6Z6h-64" target="5ZYStBsxPsz1scZc6Z6h-66">
          <mxGeometry relative="1" as="geometry" />
        </mxCell>
        <mxCell id="5ZYStBsxPsz1scZc6Z6h-64" value="&lt;pre style=&quot;font-family: &amp;quot;jetbrains mono&amp;quot;; font-size: 10.5pt;&quot;&gt;&lt;span style=&quot;&quot;&gt;inet_csk_clone_lock&lt;/span&gt;&lt;/pre&gt;" style="whiteSpace=wrap;html=1;fillColor=#00FF80;fontColor=#000000;rounded=1;glass=0;strokeWidth=1;shadow=0;labelBackgroundColor=none;" vertex="1" parent="WIyWlLk6GJQsqaUBKTNV-1">
          <mxGeometry x="1067" y="117" width="145" height="60" as="geometry" />
        </mxCell>
        <mxCell id="5ZYStBsxPsz1scZc6Z6h-66" value="&lt;pre style=&quot;font-family: &amp;quot;jetbrains mono&amp;quot;; font-size: 10.5pt;&quot;&gt;&lt;span style=&quot;font-style: italic;&quot;&gt;TCP_SYN_RECV&lt;/span&gt;&lt;/pre&gt;" style="whiteSpace=wrap;html=1;fillColor=#FF3333;fontColor=#000000;rounded=1;glass=0;strokeWidth=1;shadow=0;labelBackgroundColor=none;" vertex="1" parent="WIyWlLk6GJQsqaUBKTNV-1">
          <mxGeometry x="1304.5" y="117" width="120" height="60" as="geometry" />
        </mxCell>
        <mxCell id="5ZYStBsxPsz1scZc6Z6h-2" value="lookup sock state" style="rhombus;whiteSpace=wrap;html=1;rounded=1;glass=0;strokeWidth=1;shadow=0;fontColor=#000000;labelBackgroundColor=none;" vertex="1" parent="WIyWlLk6GJQsqaUBKTNV-1">
          <mxGeometry x="180" y="165" width="80" height="80" as="geometry" />
        </mxCell>
        <mxCell id="5ZYStBsxPsz1scZc6Z6h-68" value="" style="edgeStyle=orthogonalEdgeStyle;rounded=0;orthogonalLoop=1;jettySize=auto;html=1;entryX=0.5;entryY=0;entryDx=0;entryDy=0;fontColor=#000000;labelBackgroundColor=none;endArrow=none;" edge="1" parent="WIyWlLk6GJQsqaUBKTNV-1" source="WIyWlLk6GJQsqaUBKTNV-3" target="5ZYStBsxPsz1scZc6Z6h-2">
          <mxGeometry relative="1" as="geometry">
            <mxPoint x="220" y="120" as="sourcePoint" />
            <mxPoint x="220" y="310" as="targetPoint" />
          </mxGeometry>
        </mxCell>
      </root>
    </mxGraphModel>
  </diagram>
</mxfile>
